<?xml version="1.0" standalone="no"?>
<!DOCTYPE svg PUBLIC "-//W3C//DTD SVG 20010904//EN"
 "http://www.w3.org/TR/2001/REC-SVG-20010904/DTD/svg10.dtd">
<svg version="1.0" xmlns="http://www.w3.org/2000/svg"
 width="512.000000pt" height="512.000000pt" viewBox="0 0 512.000000 512.000000"
 preserveAspectRatio="xMidYMid meet">

<g transform="translate(0.000000,512.000000) scale(0.100000,-0.100000)"
fill="#000000" stroke="none">
<path d="M963 4096 c-102 -32 -176 -97 -222 -196 -22 -46 -26 -69 -26 -140 0
-76 4 -93 33 -152 38 -77 92 -130 171 -167 l56 -26 1585 0 1585 0 56 26 c79
37 133 90 171 167 29 59 33 76 33 152 0 76 -4 93 -33 152 -38 77 -92 130 -171
167 l-56 26 -1570 2 c-1279 1 -1578 -1 -1612 -11z m3182 -103 c92 -31 165
-134 165 -233 0 -60 -30 -130 -75 -175 -80 -81 51 -75 -1675 -75 -1726 0
-1595 -6 -1675 75 -98 98 -98 252 0 350 79 79 -52 73 1671 74 1409 1 1545 0
1589 -16z"/>
<path d="M963 2896 c-102 -32 -176 -97 -222 -196 -22 -46 -26 -69 -26 -140 0
-76 4 -93 33 -152 38 -77 92 -130 171 -167 l56 -26 1585 0 1585 0 56 26 c79
37 133 90 171 167 29 59 33 76 33 152 0 76 -4 93 -33 152 -38 77 -92 130 -171
167 l-56 26 -1570 2 c-1279 1 -1578 -1 -1612 -11z m3182 -103 c92 -31 165
-134 165 -233 0 -60 -30 -130 -75 -175 -80 -81 51 -75 -1675 -75 -1726 0
-1595 -6 -1675 75 -98 98 -98 252 0 350 79 79 -52 73 1671 74 1409 1 1545 0
1589 -16z"/>
<path d="M963 1696 c-102 -32 -176 -97 -222 -196 -22 -46 -26 -69 -26 -140 0
-76 4 -93 33 -152 38 -77 92 -130 171 -167 l56 -26 1585 0 1585 0 56 26 c79
37 133 90 171 167 29 59 33 76 33 152 0 76 -4 93 -33 152 -38 77 -92 130 -171
167 l-56 26 -1570 2 c-1279 1 -1578 -1 -1612 -11z m3182 -103 c92 -31 165
-134 165 -233 0 -60 -30 -130 -75 -175 -80 -81 51 -75 -1675 -75 -1726 0
-1595 -6 -1675 75 -98 98 -98 252 0 350 79 79 -52 73 1671 74 1409 1 1545 0
1589 -16z"/>
</g>
</svg>
